<mxfile host="app.diagrams.net" modified="2023-11-25T12:42:22.709Z" agent="Mozilla/5.0 (Windows NT 10.0; Win64; x64) AppleWebKit/537.36 (KHTML, like Gecko) Chrome/109.0.0.0 Safari/537.36" etag="pvJbhMELIAOwJ448SSDm" version="22.1.3" type="device">
  <diagram name="Page-1" id="9yOzgK9JXHOpygU7O0AK">
    <mxGraphModel dx="1259" dy="679" grid="1" gridSize="10" guides="1" tooltips="1" connect="1" arrows="1" fold="1" page="1" pageScale="1" pageWidth="850" pageHeight="1100" math="0" shadow="0">
      <root>
        <mxCell id="0" />
        <mxCell id="1" parent="0" />
        <mxCell id="fZN2inc_5-iC_q1EGsuW-10" value="" style="rounded=0;whiteSpace=wrap;html=1;dashed=1;dashPattern=8 8;" vertex="1" parent="1">
          <mxGeometry x="360" y="160" width="90" height="40" as="geometry" />
        </mxCell>
        <mxCell id="0sJMUstCO5XJUaP8Zc5K-1" value="" style="rounded=0;whiteSpace=wrap;html=1;" parent="1" vertex="1">
          <mxGeometry y="160" width="360" height="40" as="geometry" />
        </mxCell>
        <mxCell id="0sJMUstCO5XJUaP8Zc5K-2" value="opcode" style="text;html=1;strokeColor=none;fillColor=none;align=center;verticalAlign=middle;whiteSpace=wrap;rounded=0;fontSize=14;" parent="1" vertex="1">
          <mxGeometry y="165" width="90" height="30" as="geometry" />
        </mxCell>
        <mxCell id="0sJMUstCO5XJUaP8Zc5K-3" value="" style="endArrow=none;html=1;rounded=0;entryX=0.161;entryY=-0.029;entryDx=0;entryDy=0;entryPerimeter=0;" parent="1" edge="1">
          <mxGeometry width="50" height="50" relative="1" as="geometry">
            <mxPoint x="90" y="200" as="sourcePoint" />
            <mxPoint x="89.99999999999994" y="160.00000000000003" as="targetPoint" />
          </mxGeometry>
        </mxCell>
        <mxCell id="fZN2inc_5-iC_q1EGsuW-2" value="A1" style="text;html=1;strokeColor=none;fillColor=none;align=center;verticalAlign=middle;whiteSpace=wrap;rounded=0;fontSize=14;" vertex="1" parent="1">
          <mxGeometry x="90" y="165" width="90" height="30" as="geometry" />
        </mxCell>
        <mxCell id="fZN2inc_5-iC_q1EGsuW-3" value="" style="endArrow=none;html=1;rounded=0;entryX=0.161;entryY=-0.029;entryDx=0;entryDy=0;entryPerimeter=0;" edge="1" parent="1">
          <mxGeometry width="50" height="50" relative="1" as="geometry">
            <mxPoint x="180" y="200" as="sourcePoint" />
            <mxPoint x="179.99999999999994" y="160.00000000000003" as="targetPoint" />
          </mxGeometry>
        </mxCell>
        <mxCell id="fZN2inc_5-iC_q1EGsuW-4" value="A2" style="text;html=1;strokeColor=none;fillColor=none;align=center;verticalAlign=middle;whiteSpace=wrap;rounded=0;fontSize=14;" vertex="1" parent="1">
          <mxGeometry x="180" y="165" width="90" height="30" as="geometry" />
        </mxCell>
        <mxCell id="fZN2inc_5-iC_q1EGsuW-5" value="" style="endArrow=none;html=1;rounded=0;entryX=0.161;entryY=-0.029;entryDx=0;entryDy=0;entryPerimeter=0;" edge="1" parent="1">
          <mxGeometry width="50" height="50" relative="1" as="geometry">
            <mxPoint x="270" y="200" as="sourcePoint" />
            <mxPoint x="269.99999999999994" y="160.00000000000003" as="targetPoint" />
          </mxGeometry>
        </mxCell>
        <mxCell id="fZN2inc_5-iC_q1EGsuW-6" value="A3" style="text;html=1;strokeColor=none;fillColor=none;align=center;verticalAlign=middle;whiteSpace=wrap;rounded=0;fontSize=14;" vertex="1" parent="1">
          <mxGeometry x="270" y="165" width="90" height="30" as="geometry" />
        </mxCell>
        <mxCell id="fZN2inc_5-iC_q1EGsuW-8" value="A4" style="text;html=1;strokeColor=none;fillColor=none;align=center;verticalAlign=middle;whiteSpace=wrap;rounded=0;fontSize=14;" vertex="1" parent="1">
          <mxGeometry x="360" y="165" width="90" height="30" as="geometry" />
        </mxCell>
        <mxCell id="fZN2inc_5-iC_q1EGsuW-12" value="" style="rounded=0;whiteSpace=wrap;html=1;" vertex="1" parent="1">
          <mxGeometry y="240" width="270" height="40" as="geometry" />
        </mxCell>
        <mxCell id="fZN2inc_5-iC_q1EGsuW-13" value="opcode" style="text;html=1;strokeColor=none;fillColor=none;align=center;verticalAlign=middle;whiteSpace=wrap;rounded=0;fontSize=14;" vertex="1" parent="1">
          <mxGeometry y="245" width="90" height="30" as="geometry" />
        </mxCell>
        <mxCell id="fZN2inc_5-iC_q1EGsuW-14" value="" style="endArrow=none;html=1;rounded=0;entryX=0.161;entryY=-0.029;entryDx=0;entryDy=0;entryPerimeter=0;" edge="1" parent="1">
          <mxGeometry width="50" height="50" relative="1" as="geometry">
            <mxPoint x="90" y="280" as="sourcePoint" />
            <mxPoint x="89.99999999999994" y="240.00000000000003" as="targetPoint" />
          </mxGeometry>
        </mxCell>
        <mxCell id="fZN2inc_5-iC_q1EGsuW-15" value="A1" style="text;html=1;strokeColor=none;fillColor=none;align=center;verticalAlign=middle;whiteSpace=wrap;rounded=0;fontSize=14;" vertex="1" parent="1">
          <mxGeometry x="90" y="245" width="90" height="30" as="geometry" />
        </mxCell>
        <mxCell id="fZN2inc_5-iC_q1EGsuW-16" value="" style="endArrow=none;html=1;rounded=0;entryX=0.161;entryY=-0.029;entryDx=0;entryDy=0;entryPerimeter=0;" edge="1" parent="1">
          <mxGeometry width="50" height="50" relative="1" as="geometry">
            <mxPoint x="180" y="280" as="sourcePoint" />
            <mxPoint x="179.99999999999994" y="240.00000000000003" as="targetPoint" />
          </mxGeometry>
        </mxCell>
        <mxCell id="fZN2inc_5-iC_q1EGsuW-17" value="A2" style="text;html=1;strokeColor=none;fillColor=none;align=center;verticalAlign=middle;whiteSpace=wrap;rounded=0;fontSize=14;" vertex="1" parent="1">
          <mxGeometry x="180" y="245" width="90" height="30" as="geometry" />
        </mxCell>
        <mxCell id="fZN2inc_5-iC_q1EGsuW-21" value="" style="rounded=0;whiteSpace=wrap;html=1;" vertex="1" parent="1">
          <mxGeometry y="320" width="180" height="40" as="geometry" />
        </mxCell>
        <mxCell id="fZN2inc_5-iC_q1EGsuW-22" value="opcode" style="text;html=1;strokeColor=none;fillColor=none;align=center;verticalAlign=middle;whiteSpace=wrap;rounded=0;fontSize=14;" vertex="1" parent="1">
          <mxGeometry y="325" width="90" height="30" as="geometry" />
        </mxCell>
        <mxCell id="fZN2inc_5-iC_q1EGsuW-23" value="" style="endArrow=none;html=1;rounded=0;entryX=0.161;entryY=-0.029;entryDx=0;entryDy=0;entryPerimeter=0;" edge="1" parent="1">
          <mxGeometry width="50" height="50" relative="1" as="geometry">
            <mxPoint x="90" y="360" as="sourcePoint" />
            <mxPoint x="89.99999999999994" y="320" as="targetPoint" />
          </mxGeometry>
        </mxCell>
        <mxCell id="fZN2inc_5-iC_q1EGsuW-24" value="A1" style="text;html=1;strokeColor=none;fillColor=none;align=center;verticalAlign=middle;whiteSpace=wrap;rounded=0;fontSize=14;" vertex="1" parent="1">
          <mxGeometry x="90" y="325" width="90" height="30" as="geometry" />
        </mxCell>
        <mxCell id="fZN2inc_5-iC_q1EGsuW-27" value="" style="rounded=0;whiteSpace=wrap;html=1;" vertex="1" parent="1">
          <mxGeometry y="400" width="90" height="40" as="geometry" />
        </mxCell>
        <mxCell id="fZN2inc_5-iC_q1EGsuW-28" value="opcode" style="text;html=1;strokeColor=none;fillColor=none;align=center;verticalAlign=middle;whiteSpace=wrap;rounded=0;fontSize=14;" vertex="1" parent="1">
          <mxGeometry y="405" width="90" height="30" as="geometry" />
        </mxCell>
      </root>
    </mxGraphModel>
  </diagram>
</mxfile>
